<svg xmlns="http://www.w3.org/2000/svg" width="132" height="146" fill="none"><g filter="url(#a)"><path fill="#f9f9f9" d="M76.9 5.67C76.77 5.67 72.68 0 66.36 0c-6.4 0-10.54 5.67-10.67 5.67L7.34 65.14l101.89 31.15 15.46-18.4c.03-.04 2.81-2.86 2.81-6.38s-2.78-6.34-2.81-6.37z"/></g><g filter="url(#b)"><path fill="url(#c)" d="M22.5 46.5s28.5-3 52.5 13 34.23 36.8 34.23 36.8-1.41.7-2.81.7-2.82-.7-2.82-.7c-14.18-6.47-25.78-8.5-37.24-8.5-11.6 0-23.34 2.03-37.69 8.5 0 0-1.42.7-2.84.7s-2.84-.7-2.84-.7L7.34 77.87S4.5 75.05 4.5 71.51s2.84-6.37 2.84-6.37z"/></g><g filter="url(#d)"><path fill="url(#e)" d="M64.5 91C27 91 4 121 4 131.5l1 2.5s10.5-27 49-31 52.5 31 52.5 31l19-2.5C119.5 115 102 91 64.5 91"/></g><g filter="url(#f)"><path fill="#1a266a" d="m54.44 128.5 48-20.5-44 29S53 139 51 136s3.44-7.5 3.44-7.5"/></g><defs><filter id="a" width="128.16" height="104.29" x="3.34" y="0" color-interpolation-filters="sRGB" filterUnits="userSpaceOnUse"><feFlood flood-opacity="0" result="BackgroundImageFix"/><feColorMatrix in="SourceAlpha" result="hardAlpha" values="0 0 0 0 0 0 0 0 0 0 0 0 0 0 0 0 0 0 127 0"/><feOffset dy="4"/><feGaussianBlur stdDeviation="2"/><feComposite in2="hardAlpha" operator="out"/><feColorMatrix values="0 0 0 0 0 0 0 0 0 0 0 0 0 0 0 0 0 0 0.25 0"/><feBlend in2="BackgroundImageFix" result="effect1_dropShadow_6_19"/><feBlend in="SourceGraphic" in2="effect1_dropShadow_6_19" result="shape"/></filter><filter id="b" width="112.73" height="58.72" x=".5" y="46.28" color-interpolation-filters="sRGB" filterUnits="userSpaceOnUse"><feFlood flood-opacity="0" result="BackgroundImageFix"/><feColorMatrix in="SourceAlpha" result="hardAlpha" values="0 0 0 0 0 0 0 0 0 0 0 0 0 0 0 0 0 0 127 0"/><feOffset dy="4"/><feGaussianBlur stdDeviation="2"/><feComposite in2="hardAlpha" operator="out"/><feColorMatrix values="0 0 0 0 0 0 0 0 0 0 0 0 0 0 0 0 0 0 0.25 0"/><feBlend in2="BackgroundImageFix" result="effect1_dropShadow_6_19"/><feBlend in="SourceGraphic" in2="effect1_dropShadow_6_19" result="shape"/></filter><filter id="d" width="129.5" height="51" x="0" y="91" color-interpolation-filters="sRGB" filterUnits="userSpaceOnUse"><feFlood flood-opacity="0" result="BackgroundImageFix"/><feColorMatrix in="SourceAlpha" result="hardAlpha" values="0 0 0 0 0 0 0 0 0 0 0 0 0 0 0 0 0 0 127 0"/><feOffset dy="4"/><feGaussianBlur stdDeviation="2"/><feComposite in2="hardAlpha" operator="out"/><feColorMatrix values="0 0 0 0 0 0 0 0 0 0 0 0 0 0 0 0 0 0 0.25 0"/><feBlend in2="BackgroundImageFix" result="effect1_dropShadow_6_19"/><feBlend in="SourceGraphic" in2="effect1_dropShadow_6_19" result="shape"/></filter><filter id="f" width="59.88" height="37.65" x="46.56" y="108" color-interpolation-filters="sRGB" filterUnits="userSpaceOnUse"><feFlood flood-opacity="0" result="BackgroundImageFix"/><feColorMatrix in="SourceAlpha" result="hardAlpha" values="0 0 0 0 0 0 0 0 0 0 0 0 0 0 0 0 0 0 127 0"/><feOffset dy="4"/><feGaussianBlur stdDeviation="2"/><feComposite in2="hardAlpha" operator="out"/><feColorMatrix values="0 0 0 0 0 0 0 0 0 0 0 0 0 0 0 0 0 0 0.25 0"/><feBlend in2="BackgroundImageFix" result="effect1_dropShadow_6_19"/><feBlend in="SourceGraphic" in2="effect1_dropShadow_6_19" result="shape"/></filter><radialGradient id="c" cx="0" cy="0" r="1" gradientTransform="matrix(21 -41 144 75 13.5 91.5)" gradientUnits="userSpaceOnUse"><stop offset=".02" stop-color="#085090"/><stop offset="1" stop-color="#66dcdf"/></radialGradient><radialGradient id="e" cx="0" cy="0" r="1" gradientTransform="matrix(25 -35 167 64 14.44 129.34)" gradientUnits="userSpaceOnUse"><stop offset=".02" stop-color="#085090"/><stop offset="1" stop-color="#66dcdf"/></radialGradient></defs></svg>