<svg width="468" height="240" viewBox="0 0 468 240" fill="none" xmlns="http://www.w3.org/2000/svg">
<rect x="400" y="17" width="4" height="172" fill="#272727"/>
<path d="M467.5 39C467.5 22.3782 452 2 428 2H404V198H431C449.713 198 467.5 178.122 467.5 161.5V39Z" fill="#2A2A2A"/>
<path d="M434.25 92C442.257 92 448.75 98.4918 448.75 106.5C448.75 114.508 442.257 121 434.25 121C426.242 121 419.75 114.508 419.75 106.5C419.75 98.4918 426.242 92.0001 434.25 92Z" fill="#454242" stroke="#5D5D5D" stroke-width="2"/>
<circle cx="434.5" cy="68" r="8" fill="#4D4D4D"/>
<circle cx="450.5" cy="52" r="8" fill="#4D4D4D"/>
<circle cx="434.5" cy="36" r="8" fill="#4D4D4D"/>
<circle cx="418.5" cy="52" r="8" fill="#4D4D4D"/>
<path d="M413.5 15H415.5C416.052 15 416.5 15.4477 416.5 16V18C416.5 18.5523 416.948 19 417.5 19H419.5C420.052 19 420.5 19.4477 420.5 20V22C420.5 22.5523 420.052 23 419.5 23H417.5C416.948 23 416.5 23.4477 416.5 24V26C416.5 26.5523 416.052 27 415.5 27H413.5C412.948 27 412.5 26.5523 412.5 26V24C412.5 23.4477 412.052 23 411.5 23H409.5C408.948 23 408.5 22.5523 408.5 22V20C408.5 19.4477 408.948 19 409.5 19H411.5C412.052 19 412.5 18.5523 412.5 18V16C412.5 15.4477 412.948 15 413.5 15Z" fill="#4D4D4D"/>
<circle cx="423.5" cy="143" r="7" fill="#818181" stroke="#0043ED" stroke-width="2"/>
<path d="M466 26C465 19.5 450 1 432.5 1H416" stroke="#191919" stroke-width="2"/>
<rect x="64" y="17" width="4" height="172" fill="#272727"/>
<path d="M0 39.5C0 22.8782 15.5 2 39.5 2H64V198H36.5C17.7873 198 0 178.622 0 162V39.5Z" fill="#2A2A2A"/>
<path d="M31.5 37.5C23.4924 37.5 17 43.9918 17 52C17 60.0082 23.4924 66.5 31.5 66.5C39.5083 66.4999 46 60.0082 46 52C46 43.9918 39.5083 37.5001 31.5 37.5Z" fill="#454242" stroke="#5D5D5D" stroke-width="2"/>
<path d="M42 106C42 110.142 45.3579 113.5 49.5 113.5C53.6421 113.5 57 110.142 57 106C57 101.858 53.6421 98.5 49.5 98.5C45.3579 98.5 42 101.858 42 106Z" fill="#4D4D4D"/>
<circle cx="7.5" cy="7.5" r="7.5" transform="matrix(-1 0 0 1 42 83.5)" fill="#4D4D4D"/>
<circle cx="7.5" cy="7.5" r="7.5" transform="matrix(-1 0 0 1 27 98.5)" fill="#4D4D4D"/>
<circle cx="7.5" cy="7.5" r="7.5" transform="matrix(-1 0 0 1 42 113.5)" fill="#4D4D4D"/>
<path d="M59 22.5V20.5C59 19.9477 58.5523 19.5 58 19.5H48C47.4477 19.5 47 19.9477 47 20.5V22.5C47 23.0523 47.4477 23.5 48 23.5H58C58.5523 23.5 59 23.0523 59 22.5Z" fill="#4D4D4D"/>
<path d="M38 138.5C38 137.395 38.8954 136.5 40 136.5H49C50.1046 136.5 51 137.395 51 138.5V147.5C51 148.605 50.1046 149.5 49 149.5H40C38.8954 149.5 38 148.605 38 147.5V138.5Z" fill="#3D3D3D"/>
<path d="M49 143C49 145.485 46.9853 147.5 44.5 147.5C42.0147 147.5 40 145.485 40 143C40 140.515 42.0147 138.5 44.5 138.5C46.9853 138.5 49 140.515 49 143Z" fill="#737373"/>
<path d="M1 27C2 20.5 17 1 36.5 1H53" stroke="#191919" stroke-width="2"/>
<path d="M397 2V5C397 10 403 12 403 12V198H65V12C65 12 72 10 72 5V2H397Z" fill="#212121"/>
<path d="M87 1H92V1.5H97.5V1H102V2H87V1Z" fill="#333333"/>
<rect x="75" y="8" width="318" height="184" rx="3" fill="#0B0B0B"/>
<rect x="101" y="24" width="270" height="152" rx="0.5" fill="#2B2B2B"/>
<path d="M115 188H107H99V190V192H115V188Z" fill="#333333"/>
<rect x="355" y="188" width="16" height="4" fill="#333333"/>
<path d="M183 188C183 186.818 182.571 185.654 181.828 184.818C181.086 183.982 180.051 183.5 179 183.5C177.949 183.5 176.914 183.982 176.172 184.818C175.429 185.654 175 186.818 175 188L175 192H183V188Z" fill="#333333"/>
</svg>
