<svg xmlns="http://www.w3.org/2000/svg" width="468" height="240" fill="none"><path fill="#272727" d="M400 17h4v172h-4z"/><path fill="#ff3c28" d="M467.5 39c0-16.6-15.5-37-39.5-37h-24v196h27c18.7 0 36.5-19.9 36.5-36.5z"/><path fill="#454242" stroke="#5d5d5d" stroke-width="2" d="M434.3 92a14.5 14.5 0 1 1 0 29 14.5 14.5 0 0 1 0-29Z"/><circle cx="434.5" cy="68" r="8" fill="#323232"/><circle cx="450.5" cy="52" r="8" fill="#323232"/><circle cx="434.5" cy="36" r="8" fill="#323232"/><circle cx="418.5" cy="52" r="8" fill="#323232"/><path fill="#323232" d="M413.5 15h2q1 0 1 1v2q0 1 1 1h2q1 0 1 1v2q0 1-1 1h-2a1 1 0 0 0-1 1v2q0 1-1 1h-2a1 1 0 0 1-1-1v-2q0-1-1-1h-2a1 1 0 0 1-1-1v-2q0-1 1-1h2q1 0 1-1v-2q0-1 1-1"/><circle cx="423.5" cy="143" r="7" fill="#001e1e" stroke="#0043ed" stroke-width="2"/><path stroke="#191919" stroke-width="2" d="M466 26c-1-6.5-16-25-33.5-25H416"/><path fill="#272727" d="M64 17h4v172h-4z"/><path fill="#0ab9e6" d="M0 39.5A40 40 0 0 1 39.5 2H64v196H36.5C17.8 198 0 178.6 0 162z"/><path fill="#454242" stroke="#5d5d5d" stroke-width="2" d="M31.5 37.5a14.5 14.5 0 1 0 0 29 14.5 14.5 0 0 0 0-29Z"/><path fill="#323232" d="M40 106.5a7.5 7.5 0 1 0 15 0 7.5 7.5 0 0 0-15 0"/><circle cx="7.5" cy="7.5" r="7.5" fill="#323232" transform="matrix(-1 0 0 1 40 84)"/><circle cx="7.5" cy="7.5" r="7.5" fill="#323232" transform="matrix(-1 0 0 1 25 99)"/><circle cx="7.5" cy="7.5" r="7.5" fill="#323232" transform="matrix(-1 0 0 1 40 114)"/><path fill="#323232" d="M59 22.5v-2q0-1-1-1H48a1 1 0 0 0-1 1v2q0 1 1 1h10q1 0 1-1"/><path fill="#3d3d3d" d="M38 138.5q.2-1.8 2-2h9a2 2 0 0 1 2 2v9a2 2 0 0 1-2 2h-9a2 2 0 0 1-2-2z"/><path fill="#737373" d="M49 143a4.5 4.5 0 1 1-9 0 4.5 4.5 0 0 1 9 0"/><path stroke="#191919" stroke-width="2" d="M1 27C2 20.5 17 1 36.5 1H53"/><path fill="#212121" d="M397 2v3c0 5 6 7 6 7v186H65V12s7-2 7-7V2z"/><path fill="#333" d="M87 1h5v.5h5.5V1h4.5v1H87z"/><rect width="318" height="184" x="75" y="8" fill="#0b0b0b" rx="3"/><rect width="270" height="152" x="101" y="24" fill="#2b2b2b" rx=".5"/><path fill="#333" d="M115 188H99v4h16zM355 188h16v4h-16zM183 188q0-1.8-1.2-3.2a4 4 0 0 0-2.8-1.3q-1.6 0-2.8 1.3T175 188v4h8z"/></svg>